<?xml version="1.0" encoding="UTF-8"?><svg id="Camada_2" xmlns="http://www.w3.org/2000/svg" viewBox="0 0 76.14 43.85"><g id="Camada_1-2"><path d="m.05,37.9l-.05-.92c.34-1.63,1.44-2.7,2.55-3.79C13.3,22.65,24.05,12.1,34.78,1.54c1.39-1.37,2.99-1.96,4.92-1.2.48.19,1.16.67,1.53,1.03,11.17,10.93,22.32,21.89,33.46,32.85,1.94,1.9,1.94,4.28.03,6.19-.57.58-1.14,1.16-1.74,1.71-.71.67-1.56,1.19-2.51,1.45-2.32.63-3.39-.39-4.43-1.41-9.08-8.92-18.16-17.84-27.24-26.76-.21-.21-.38-.45-.9-.83-.14.26-.23.56-.44.76-9.16,9.01-18.32,18.02-27.49,27.02-1.71,1.68-4.05,2.01-5.67.63-1.69-1.45-3.54-2.81-4.26-5.08Z"/></g></svg>