<?xml version="1.0" encoding="UTF-8"?><svg id="Camada_2" xmlns="http://www.w3.org/2000/svg" width="30" height="30" viewBox="0 0 255 255.06"><g id="Camada_1-2"><path d="m0,166.87c.16-.33.38-.63.47-.98,1-3.83,4.31-6.48,8.26-6.49,31.5-.01,63-.01,94.5,0,2.11,0,3.67,1.08,4.21,2.85.55,1.8-.17,3.46-2.16,4.69-4.22,2.61-7.34,6.12-8.69,10.94-.58,2.05-.92,4.23-.93,6.36-.07,20.88-.12,41.76,0,62.64.03,5.12-4.22,8.2-8.25,8.19-25.77-.05-51.55-.03-77.32-.03-5.41,0-7.83-1.68-9.76-6.73-.07-.18-.22-.33-.33-.49,0-26.98,0-53.96,0-80.94Zm87.66,80.13c0-.53,0-.98,0-1.43,0-20.42.04-40.84-.03-61.25-.02-5.94,1.68-11.25,4.98-16.12.15-.22.25-.47.38-.73H8.04v79.54h79.62Z"/><path d="m247.29,0c1.52.71,3.22,1.2,4.53,2.19,2.28,1.72,3.19,4.26,3.19,7.11,0,22.83,0,45.65,0,68.48,0,2.82,0,5.64,0,8.47,0,5.66-3.7,9.39-9.32,9.39-31,0-61.99,0-92.99,0-.78,0-1.59-.03-2.34-.22-1.39-.35-2.33-1.32-2.66-2.69-.34-1.4-.05-2.74,1.09-3.75.4-.36.85-.66,1.3-.96,6.05-4.12,9.3-9.75,9.29-17.15,0-20.92,0-41.83,0-62.75,0-4.03,1.72-6.38,5.59-7.67.31-.1.59-.29.88-.44,27.14,0,54.29,0,81.43,0Zm-79.94,7.97c0,.64,0,1.12,0,1.61,0,20.42-.03,40.83.02,61.25.01,5.83-1.48,11.13-4.82,15.91-.17.25-.29.53-.47.86h84.95c0-3.96,0-7.86,0-11.75,0-22.12,0-44.23.02-66.35,0-1.17-.27-1.72-1.5-1.53-.2.03-.41,0-.62,0-25.35,0-50.7,0-76.05,0-.45,0-.91,0-1.55,0Z"/><path d="m123.45,223.18v-53.27c-1.27,0-2.46,0-3.66,0-2.22-.02-3.94-1.54-4.14-3.66-.19-1.99,1.27-3.88,3.41-4.24,1.42-.24,2.89-.26,4.4-.38v-30.03h-41.21c0,2.76-.08,5.48.02,8.2.09,2.32.38,4.63.59,6.94.21,2.26-1.26,4.24-3.35,4.49-2.5.3-4.35-1.11-4.56-3.61-.44-5.29-.81-10.58-1.22-15.99H31.86c.21,2.27.35,4.49.64,6.69.35,2.67.8,5.33,1.24,7.99.37,2.27-.89,4.5-2.79,4.86-2.48.48-4.58-.75-5.02-3.26-.7-3.95-1.34-7.94-1.69-11.93-.54-6.12-.5-12.26.11-18.4,1.16-11.74,4.13-22.98,9.17-33.65,9.44-19.99,23.74-35.48,42.93-46.51,10.21-5.87,21.11-9.77,32.65-11.88,9.15-1.67,18.38-2.12,27.64-1.16,3.75.39,7.49.93,11.19,1.6,3.31.6,4.63,3.96,2.65,6.39-.97,1.19-2.23,1.57-3.77,1.38-4.73-.6-9.46-1.13-14.19-1.67-.32-.04-.64,0-1.04,0v53.08c1.14,0,2.24.01,3.35,0,2.58-.03,4.26,1.39,4.39,3.73.13,2.3-1.43,4.02-3.92,4.27-1.23.12-2.48.15-3.8.23v30.08h41.49c-.13-3.06-.22-6.11-.4-9.15-.13-2.19-.42-4.38-.56-6.57-.12-1.86.97-3.4,2.71-4.02,1.68-.59,3.44-.09,4.49,1.43.4.58.68,1.35.73,2.06.37,5,.66,10.01.98,15.02.03.4.05.81.08,1.27h42.08c-.12-1.59-.16-3.15-.38-4.68-.49-3.44-1.05-6.88-1.64-10.31-.37-2.18.89-4.29,2.97-4.79,2.18-.52,4.35.62,4.76,2.87.77,4.19,1.52,8.41,1.86,12.66.92,11.5.02,22.88-2.9,34.06-2.99,11.49-7.71,22.22-14.41,32.04-10.59,15.51-24.35,27.41-41.23,35.64-12.03,5.86-24.76,9.09-38.12,9.95-8.83.57-17.57.02-26.26-1.54-.45-.08-.89-.18-1.33-.32-2.05-.63-3.28-2.65-2.83-4.63.45-2.03,2.47-3.35,4.61-3.06,4.15.57,8.29,1.13,12.44,1.66.86.11,1.74.11,2.73.16Zm99.75-91.53c-.31-.08-.42-.13-.54-.13-13.57,0-27.14,0-40.71-.03-.83,0-.91.39-.94,1.06-.21,4.47-.38,8.95-.71,13.42-.67,8.82-2.27,17.51-4.37,26.09-.3,1.21.03,1.68,1.01,2.22,4.91,2.69,9.67,5.64,13.97,9.26,2.82,2.37,5.66,4.71,8.53,7.09,14.82-16.79,22.36-36.62,23.76-58.98Zm-191.27-8.21h41.95c.04-.25.07-.41.08-.58.33-5.42.5-10.86,1.01-16.27.75-8.05,2.04-16.03,4.1-23.87.23-.86.11-1.38-.74-1.81-6.1-3.1-11.55-7.15-16.79-11.51-1.96-1.64-3.85-3.37-5.78-5.07-14.67,16.99-22.66,36.6-23.83,59.1Zm91.49.03v-30.21c-6.37-.13-12.56-1.07-18.67-2.43-6.15-1.37-12.14-3.27-17.94-5.81-2.86,11.97-5.5,33.26-4.76,38.45h41.37Zm8.13,38.24c12.71.55,24.9,3.33,36.68,8.27,2.93-12.79,4.66-25.46,4.82-38.41h-41.5v30.14Zm-.04,61.12c3.41-.64,6.4-1.9,9.12-3.79,7.4-5.15,12.68-12.09,16.9-19.93,3.51-6.52,5.97-13.47,8.32-20.46.34-1.02-.24-1.22-.92-1.5-8.56-3.49-17.39-5.96-26.61-6.9-2.24-.23-4.5-.33-6.81-.5v53.09Zm-8.06-190.64c-1.42.44-2.72.72-3.92,1.23-7.19,3.03-12.5,8.28-16.94,14.54-6.07,8.54-10.08,18.04-13.26,27.95-.38,1.17-.11,1.65,1.01,2.12,8.05,3.31,16.35,5.67,25.01,6.62,2.66.29,5.34.49,8.1.75v-53.2Zm29.04,187.47c15.92-4,29.57-11.95,41.49-23.27-6.44-5.72-12.99-10.97-20.5-15.05-2.15,7.24-4.85,14-8.32,20.44-3.49,6.47-7.54,12.54-12.67,17.88ZM61.04,58.69c6.28,5.69,12.9,10.87,20.5,14.85,2.18-7.19,5.02-13.92,8.45-20.42,3.43-6.49,7.42-12.55,12.63-17.82-15.82,4.4-29.79,11.93-41.58,23.39Z"/><path d="m47.74,199.24c-6.51,0-13.02,0-19.53,0-2.45,0-4.28-1.65-4.3-3.86-.02-2.37,1.71-4.1,4.2-4.1,13.15-.01,26.29,0,39.44,0,1.69,0,2.96.73,3.75,2.21.76,1.43.51,2.82-.34,4.11-.84,1.27-2.12,1.64-3.56,1.65-6.55,0-13.1,0-19.66,0Z"/><path d="m39.77,223.16c-3.81,0-7.63,0-11.44,0-2.63,0-4.41-1.62-4.43-3.99-.02-2.32,1.72-3.97,4.31-3.97,7.79-.02,15.58-.02,23.37,0,2.42,0,4.2,1.73,4.19,3.98,0,2.27-1.74,3.95-4.2,3.97-3.94.03-7.87,0-11.81,0h0Z"/><path d="m207.35,31.88c6.55,0,13.1-.01,19.66,0,3.19,0,5.01,2.97,3.63,5.83-.85,1.77-2.43,2.13-4.16,2.13-10.74.01-21.48,0-32.22,0-2.16,0-4.31,0-6.47,0-2.63,0-4.48-1.63-4.49-3.93,0-2.42,1.78-4.03,4.53-4.03,6.51,0,13.02,0,19.53,0Z"/><path d="m203.13,63.76c-5.15,0-10.29,0-15.44,0-2.52,0-4.4-1.67-4.4-3.89,0-2.44,1.68-4.06,4.36-4.07,10.42-.02,20.83-.02,31.25,0,2.53,0,4.31,1.81,4.25,4.21-.05,2.03-2.02,3.75-4.33,3.75-5.23,0-10.46,0-15.69,0h0Z"/></g></svg>